<svg xmlns="http://www.w3.org/2000/svg" viewBox="0 0 560 472" fill="none"><path fill-rule="evenodd" clip-rule="evenodd" d="M541.754 265.184C529.399 281.456 513.38 294.521 499.426 309.445C481.258 328.873 466.573 351.549 456.274 376.074C445.618 401.451 438.942 429.86 419.326 449.166C391.105 476.941 344.494 476.364 307.932 461.164C250.86 437.439 210.464 385.595 179.537 332.083C173.326 321.335 167.026 310.032 156.765 303.046C138.11 290.347 113.269 295.748 90.8015 297.864C74.8318 299.369 58.1997 298.827 43.535 292.328C21.5726 282.594 6.85862 260.256 2.09768 236.71C-2.66325 213.164 1.45623 188.584 9.15743 165.829C30.2762 103.429 78.9178 51.4092 138.749 23.8431C198.581 -3.72299 268.688 -7.08931 331.684 12.1765C359.284 20.6172 386.408 33.849 405.031 55.8981C421.458 75.3465 430.388 100.572 448.424 118.539C465.692 135.742 489.383 144.445 510.88 155.936C532.377 167.426 553.673 184.299 558.568 208.177C562.671 228.192 554.109 248.912 541.754 265.184Z" fill=""></path></svg>